<svg width="89" height="62" viewBox="0 0 89 62" fill="none" xmlns="http://www.w3.org/2000/svg">
<path d="M1.512 21.56H11.16V24.824H5.808V29.768H6.72C10.56 29.768 12.48 31.64 12.48 35.384C12.48 36.888 12.216 38.056 11.688 38.888C11.176 39.704 10.472 40.264 9.576 40.568C8.696 40.856 7.616 41 6.336 41H1.512V21.56ZM6.36 38.192C7.128 38.192 7.672 37.984 7.992 37.568C8.328 37.136 8.496 36.456 8.496 35.528C8.496 34.632 8.344 33.944 8.04 33.464C7.736 32.984 7.16 32.744 6.312 32.744H5.808V38.192H6.36ZM14.5131 27.128H18.4251V28.136C18.8731 27.72 19.3611 27.408 19.8891 27.2C20.4171 26.992 20.9291 26.888 21.4251 26.888C22.4331 26.888 23.1771 27.264 23.6571 28.016C24.1531 28.768 24.4011 29.752 24.4011 30.968V36.944C24.4011 38.272 24.1371 39.32 23.6091 40.088C23.0811 40.856 22.3371 41.24 21.3771 41.24C20.4011 41.24 19.4171 40.808 18.4251 39.944V45.56H14.5131V27.128ZM19.4571 38.72C19.8091 38.72 20.0651 38.576 20.2251 38.288C20.4011 38 20.4891 37.624 20.4891 37.16V30.68C20.4891 30.264 20.4091 29.92 20.2491 29.648C20.0891 29.376 19.8491 29.24 19.5291 29.24C19.1451 29.24 18.7771 29.4 18.4251 29.72V38.36C18.7931 38.6 19.1371 38.72 19.4571 38.72ZM31.1663 41.24C29.6463 41.24 28.4623 40.84 27.6143 40.04C26.7663 39.224 26.3423 38.08 26.3423 36.608V31.52C26.3423 30.048 26.7663 28.912 27.6143 28.112C28.4623 27.296 29.6463 26.888 31.1663 26.888C32.7023 26.888 33.8543 27.28 34.6223 28.064C35.3903 28.848 35.7743 30 35.7743 31.52V34.304H30.2063V36.968C30.2063 37.96 30.5263 38.456 31.1663 38.456C31.8383 38.456 32.1743 38.008 32.1743 37.112V35.648H35.7743V36.992C35.7743 38.384 35.3663 39.44 34.5503 40.16C33.7503 40.88 32.6223 41.24 31.1663 41.24ZM32.1743 32.48V31.088C32.1743 30.576 32.0783 30.216 31.8863 30.008C31.7103 29.784 31.4623 29.672 31.1423 29.672C30.8383 29.672 30.6063 29.792 30.4463 30.032C30.2863 30.272 30.2063 30.696 30.2063 31.304V32.48H32.1743ZM37.9037 27.128H41.8157V32.504H44.1437V27.128H48.0797V41H44.1437V35.192H41.8157V41H37.9037V27.128ZM50.0571 38.624C51.0971 38.128 51.8811 37.336 52.4091 36.248C52.9531 35.144 53.2811 33.608 53.3931 31.64L53.8011 27.128H61.4331V38.6H63.4491V44.768H60.6411L60.3771 41H53.1291L52.9131 44.768H50.0571V38.624ZM57.8571 38.6V29.456H56.7051L56.4171 32.576C56.3211 34.224 56.0891 35.512 55.7211 36.44C55.3691 37.368 54.8891 38.088 54.2811 38.6H57.8571ZM65.0912 27.128H69.0032V32.696H69.1232C71.1392 32.696 72.6192 33 73.5632 33.608C74.5232 34.216 75.0032 35.288 75.0032 36.824C75.0032 38.328 74.5472 39.4 73.6352 40.04C72.7392 40.68 71.2432 41 69.1472 41H65.0912V27.128ZM76.4912 27.128H80.4032V41H76.4912V27.128ZM69.0752 38.768C69.9552 38.768 70.5712 38.632 70.9232 38.36C71.2752 38.072 71.4512 37.576 71.4512 36.872C71.4512 36.152 71.2752 35.664 70.9232 35.408C70.5872 35.152 69.9872 35.016 69.1232 35H69.0032V38.768H69.0752Z" fill="black"/>
<path fill-rule="evenodd" clip-rule="evenodd" d="M31.76 19.98C31.48 20.48 31.26 21.06 31.16 21.72C31.06 22.38 31 23.04 31 23.74V24H27V23.74C27 22.58 27.18 21.5 27.48 20.46C27.78 19.42 28.26 18.52 28.9 17.74C29.54 16.96 30.34 16.36 31.3 15.9C32.26 15.44 33.4 15.22 34.7 15.22C35.72 15.22 36.64 15.36 37.48 15.68C38.32 16 39.04 16.44 39.64 17C40.24 17.56 40.7 18.24 41.04 19.02C41.38 19.8 41.56 20.66 41.6 21.6H38.02C38 21.16 37.92 20.72 37.74 20.32C37.56 19.92 37.34 19.56 37.06 19.26C36.78 18.96 36.42 18.72 36.02 18.54C35.64 18.38 35.22 18.3 34.76 18.28C34.02 18.3 33.42 18.44 32.94 18.74C32.44 19.06 32.04 19.48 31.76 19.98ZM19 24C19 15.18 26.18 8 35 8C43.82 8 51 15.18 51 24H55C55 12.96 46.04 4 35 4C23.96 4 15 12.96 15 24H19Z" fill="black"/>
</svg>
