<svg width="89" height="48" viewBox="0 0 89 48" fill="none" xmlns="http://www.w3.org/2000/svg">
<path d="M1.512 23.56H5.808V31.432H8.808V23.56H13.128V43H8.808V34.504H5.808V43H1.512V23.56ZM20.4324 43.24C18.9124 43.24 17.7204 42.856 16.8564 42.088C16.0084 41.32 15.5844 40.192 15.5844 38.704V33.424C15.5844 31.936 16.0084 30.808 16.8564 30.04C17.7204 29.272 18.9124 28.888 20.4324 28.888C21.9524 28.888 23.1444 29.28 24.0084 30.064C24.8724 30.832 25.3044 31.952 25.3044 33.424V38.704C25.3044 40.176 24.8724 41.304 24.0084 42.088C23.1444 42.856 21.9524 43.24 20.4324 43.24ZM20.4564 40.648C20.8244 40.648 21.0804 40.512 21.2244 40.24C21.3684 39.952 21.4404 39.528 21.4404 38.968V33.16C21.4404 32.6 21.3684 32.184 21.2244 31.912C21.0804 31.624 20.8244 31.48 20.4564 31.48C20.0884 31.48 19.8244 31.624 19.6644 31.912C19.5204 32.2 19.4484 32.616 19.4484 33.16V38.968C19.4484 39.528 19.5204 39.952 19.6644 40.24C19.8244 40.512 20.0884 40.648 20.4564 40.648ZM27.474 29.128H32.394C33.722 29.128 34.746 29.272 35.466 29.56C36.186 29.832 36.674 30.216 36.93 30.712C37.186 31.208 37.314 31.832 37.314 32.584C37.314 33.448 37.13 34.104 36.762 34.552C36.394 34.984 35.866 35.296 35.178 35.488C36.122 35.728 36.77 36.128 37.122 36.688C37.474 37.248 37.65 38.016 37.65 38.992C37.65 39.92 37.474 40.68 37.122 41.272C36.786 41.848 36.218 42.28 35.418 42.568C34.618 42.856 33.538 43 32.178 43H27.474V29.128ZM32.346 34.6C32.778 34.6 33.09 34.464 33.282 34.192C33.474 33.904 33.57 33.48 33.57 32.92C33.57 32.344 33.466 31.904 33.258 31.6C33.05 31.296 32.65 31.144 32.058 31.144H31.362V34.6H32.346ZM32.01 40.84C32.442 40.84 32.778 40.808 33.018 40.744C33.274 40.664 33.474 40.48 33.618 40.192C33.778 39.904 33.858 39.464 33.858 38.872C33.858 38.2 33.786 37.712 33.642 37.408C33.498 37.088 33.306 36.896 33.066 36.832C32.826 36.752 32.482 36.712 32.034 36.712H31.362V40.84H32.01ZM44.1512 43.24C42.6312 43.24 41.4392 42.856 40.5752 42.088C39.7272 41.32 39.3032 40.192 39.3032 38.704V33.424C39.3032 31.936 39.7272 30.808 40.5752 30.04C41.4392 29.272 42.6312 28.888 44.1512 28.888C45.6712 28.888 46.8632 29.28 47.7272 30.064C48.5912 30.832 49.0232 31.952 49.0232 33.424V38.704C49.0232 40.176 48.5912 41.304 47.7272 42.088C46.8632 42.856 45.6712 43.24 44.1512 43.24ZM44.1752 40.648C44.5432 40.648 44.7992 40.512 44.9432 40.24C45.0872 39.952 45.1592 39.528 45.1592 38.968V33.16C45.1592 32.6 45.0872 32.184 44.9432 31.912C44.7992 31.624 44.5432 31.48 44.1752 31.48C43.8072 31.48 43.5432 31.624 43.3832 31.912C43.2392 32.2 43.1672 32.616 43.1672 33.16V38.968C43.1672 39.528 43.2392 39.952 43.3832 40.24C43.5432 40.512 43.8072 40.648 44.1752 40.648ZM55.7048 43.24C54.2008 43.24 53.0248 42.832 52.1768 42.016C51.3288 41.2 50.9048 40.064 50.9048 38.608V33.52C50.9048 32.048 51.3208 30.912 52.1528 30.112C53.0008 29.296 54.1848 28.888 55.7048 28.888C57.2088 28.888 58.3608 29.24 59.1608 29.944C59.9768 30.648 60.3848 31.688 60.3848 33.064V34.528H56.6168V32.944C56.6168 32.416 56.5368 32.056 56.3768 31.864C56.2328 31.656 56.0088 31.552 55.7048 31.552C55.4008 31.552 55.1768 31.68 55.0328 31.936C54.9048 32.176 54.8408 32.592 54.8408 33.184V38.944C54.8408 39.536 54.9128 39.952 55.0568 40.192C55.2008 40.432 55.4248 40.552 55.7288 40.552C56.0328 40.552 56.2568 40.448 56.4008 40.24C56.5448 40.032 56.6168 39.68 56.6168 39.184V37.336H60.3848V39.016C60.3848 40.392 59.9768 41.44 59.1608 42.16C58.3448 42.88 57.1928 43.24 55.7048 43.24ZM64.0993 31.768H61.5793V29.128H70.5073V31.768H67.9873V43H64.0993V31.768ZM72.1459 29.128H75.2419V36.544L78.8659 29.128H81.9139V43H78.7459V35.656L75.2179 43H72.1459V29.128Z" fill="black"/>
<path fill-rule="evenodd" clip-rule="evenodd" d="M16.02 8H56V26H52V16L36 26L20 16V26H16.0088L16.02 8ZM20 12L36 22L52 12H20Z" fill="black"/>
</svg>
