<svg width="144" height="48" viewBox="0 0 144 48" fill="none" xmlns="http://www.w3.org/2000/svg">
<path d="M1.44 22.56H6.504C7.768 22.56 8.84 22.696 9.72 22.968C10.616 23.224 11.336 23.728 11.88 24.48C12.424 25.232 12.696 26.288 12.696 27.648C12.696 28.8 12.448 29.696 11.952 30.336C11.456 30.976 10.752 31.384 9.84 31.56C10.96 31.704 11.816 32.176 12.408 32.976C13 33.776 13.296 34.864 13.296 36.24C13.296 40.08 11.336 42 7.416 42H1.44V22.56ZM6.576 30.336C7.488 30.336 8.104 30.128 8.424 29.712C8.76 29.296 8.928 28.648 8.928 27.768C8.928 27 8.72 26.424 8.304 26.04C7.888 25.64 7.28 25.44 6.48 25.44H5.736V30.336H6.576ZM6.648 39C7.56 39 8.2 38.776 8.568 38.328C8.952 37.864 9.144 37.144 9.144 36.168C9.144 35.064 8.952 34.288 8.568 33.84C8.2 33.392 7.552 33.168 6.624 33.168H5.736V39H6.648ZM15.3334 28.128H18.4294V35.544L22.0534 28.128H25.1014V42H21.9334V34.656L18.4054 42H15.3334V28.128ZM27.0649 39.624C28.1049 39.128 28.8889 38.336 29.4169 37.248C29.9609 36.144 30.2889 34.608 30.4009 32.64L30.8089 28.128H38.4409V39.6H40.4569V45.768H37.6489L37.3849 42H30.1369L29.9209 45.768H27.0649V39.624ZM34.8649 39.6V30.456H33.7129L33.4249 33.576C33.3289 35.224 33.0969 36.512 32.7289 37.44C32.3769 38.368 31.8969 39.088 31.2889 39.6H34.8649ZM46.635 42.24C45.115 42.24 43.931 41.84 43.083 41.04C42.235 40.224 41.811 39.08 41.811 37.608V32.52C41.811 31.048 42.235 29.912 43.083 29.112C43.931 28.296 45.115 27.888 46.635 27.888C48.171 27.888 49.323 28.28 50.091 29.064C50.859 29.848 51.243 31 51.243 32.52V35.304H45.675V37.968C45.675 38.96 45.995 39.456 46.635 39.456C47.307 39.456 47.643 39.008 47.643 38.112V36.648H51.243V37.992C51.243 39.384 50.835 40.44 50.019 41.16C49.219 41.88 48.091 42.24 46.635 42.24ZM47.643 33.48V32.088C47.643 31.576 47.547 31.216 47.355 31.008C47.179 30.784 46.931 30.672 46.611 30.672C46.307 30.672 46.075 30.792 45.915 31.032C45.755 31.272 45.675 31.696 45.675 32.304V33.48H47.643ZM57.9324 42.24C56.4124 42.24 55.2204 41.856 54.3564 41.088C53.5084 40.32 53.0844 39.192 53.0844 37.704V32.424C53.0844 30.936 53.5084 29.808 54.3564 29.04C55.2204 28.272 56.4124 27.888 57.9324 27.888C59.4524 27.888 60.6444 28.28 61.5084 29.064C62.3724 29.832 62.8044 30.952 62.8044 32.424V37.704C62.8044 39.176 62.3724 40.304 61.5084 41.088C60.6444 41.856 59.4524 42.24 57.9324 42.24ZM57.9564 39.648C58.3244 39.648 58.5804 39.512 58.7244 39.24C58.8684 38.952 58.9404 38.528 58.9404 37.968V32.16C58.9404 31.6 58.8684 31.184 58.7244 30.912C58.5804 30.624 58.3244 30.48 57.9564 30.48C57.5884 30.48 57.3244 30.624 57.1644 30.912C57.0204 31.2 56.9484 31.616 56.9484 32.16V37.968C56.9484 38.528 57.0204 38.952 57.1644 39.24C57.3244 39.512 57.5884 39.648 57.9564 39.648ZM69.534 42.24C68.014 42.24 66.822 41.856 65.958 41.088C65.11 40.32 64.686 39.192 64.686 37.704V32.424C64.686 30.936 65.11 29.808 65.958 29.04C66.822 28.272 68.014 27.888 69.534 27.888C71.054 27.888 72.246 28.28 73.11 29.064C73.974 29.832 74.406 30.952 74.406 32.424V37.704C74.406 39.176 73.974 40.304 73.11 41.088C72.246 41.856 71.054 42.24 69.534 42.24ZM69.558 39.648C69.926 39.648 70.182 39.512 70.326 39.24C70.47 38.952 70.542 38.528 70.542 37.968V32.16C70.542 31.6 70.47 31.184 70.326 30.912C70.182 30.624 69.926 30.48 69.558 30.48C69.19 30.48 68.926 30.624 68.766 30.912C68.622 31.2 68.55 31.616 68.55 32.16V37.968C68.55 38.528 68.622 38.952 68.766 39.24C68.926 39.512 69.19 39.648 69.558 39.648ZM78.0681 30.768H75.5481V28.128H84.4761V30.768H81.9561V42H78.0681V30.768ZM90.2426 42.264C89.0266 42.264 88.0906 42.048 87.4346 41.616C86.7946 41.184 86.3626 40.616 86.1386 39.912C85.9146 39.208 85.8026 38.368 85.8026 37.392H88.8986C88.8986 38.144 89.0106 38.696 89.2346 39.048C89.4746 39.4 89.8426 39.576 90.3386 39.576C90.8506 39.576 91.2026 39.416 91.3946 39.096C91.5866 38.76 91.6826 38.296 91.6826 37.704C91.6826 37.016 91.4906 36.536 91.1066 36.264C90.7226 35.976 90.0506 35.832 89.0906 35.832V33.816C89.7306 33.816 90.2106 33.76 90.5306 33.648C90.8666 33.536 91.0986 33.36 91.2266 33.12C91.3546 32.88 91.4186 32.536 91.4186 32.088C91.4186 31.08 91.0026 30.576 90.1706 30.576C89.6746 30.576 89.3226 30.72 89.1146 31.008C88.9226 31.296 88.8266 31.784 88.8266 32.472H85.7546C85.7546 31.064 86.0906 29.952 86.7626 29.136C87.4506 28.304 88.6506 27.888 90.3626 27.888C91.9146 27.888 93.0666 28.248 93.8186 28.968C94.5866 29.672 94.9706 30.608 94.9706 31.776C94.9706 32.64 94.7786 33.32 94.3946 33.816C94.0266 34.296 93.5386 34.624 92.9306 34.8C93.6026 35.056 94.1226 35.432 94.4906 35.928C94.8586 36.408 95.0426 37.16 95.0426 38.184C95.0426 39.432 94.6426 40.424 93.8426 41.16C93.0586 41.896 91.8586 42.264 90.2426 42.264ZM96.9193 28.128H100.831V33.696H100.951C102.967 33.696 104.447 34 105.391 34.608C106.351 35.216 106.831 36.288 106.831 37.824C106.831 39.328 106.375 40.4 105.463 41.04C104.567 41.68 103.071 42 100.975 42H96.9193V28.128ZM108.319 28.128H112.231V42H108.319V28.128ZM100.903 39.768C101.783 39.768 102.399 39.632 102.751 39.36C103.103 39.072 103.279 38.576 103.279 37.872C103.279 37.152 103.103 36.664 102.751 36.408C102.415 36.152 101.815 36.016 100.951 36H100.831V39.768H100.903ZM114.685 28.128H119.605C120.933 28.128 121.957 28.272 122.677 28.56C123.397 28.832 123.885 29.216 124.141 29.712C124.397 30.208 124.525 30.832 124.525 31.584C124.525 32.448 124.341 33.104 123.973 33.552C123.605 33.984 123.077 34.296 122.389 34.488C123.333 34.728 123.981 35.128 124.333 35.688C124.685 36.248 124.861 37.016 124.861 37.992C124.861 38.92 124.685 39.68 124.333 40.272C123.997 40.848 123.429 41.28 122.629 41.568C121.829 41.856 120.749 42 119.389 42H114.685V28.128ZM119.557 33.6C119.989 33.6 120.301 33.464 120.493 33.192C120.685 32.904 120.781 32.48 120.781 31.92C120.781 31.344 120.677 30.904 120.469 30.6C120.261 30.296 119.861 30.144 119.269 30.144H118.573V33.6H119.557ZM119.221 39.84C119.653 39.84 119.989 39.808 120.229 39.744C120.485 39.664 120.685 39.48 120.829 39.192C120.989 38.904 121.069 38.464 121.069 37.872C121.069 37.2 120.997 36.712 120.853 36.408C120.709 36.088 120.517 35.896 120.277 35.832C120.037 35.752 119.693 35.712 119.245 35.712H118.573V39.84H119.221ZM126.802 28.128H130.714V33.696H130.834C132.85 33.696 134.33 34 135.274 34.608C136.234 35.216 136.714 36.288 136.714 37.824C136.714 39.328 136.258 40.4 135.346 41.04C134.45 41.68 132.954 42 130.858 42H126.802V28.128ZM138.202 28.128H142.114V42H138.202V28.128ZM130.786 39.768C131.666 39.768 132.282 39.632 132.634 39.36C132.986 39.072 133.162 38.576 133.162 37.872C133.162 37.152 132.986 36.664 132.634 36.408C132.298 36.152 131.698 36.016 130.834 36H130.714V39.768H130.786Z" fill="black"/>
<path fill-rule="evenodd" clip-rule="evenodd" d="M39 24V16H19V24H15V14C15 12.9 15.9 12 17 12H41C42.1 12 43 12.9 43 14V21L51 13V24H39Z" fill="black"/>
</svg>
