<svg width="28" height="25" viewBox="0 0 28 25" fill="none" xmlns="http://www.w3.org/2000/svg">
<path d="M20.0001 -6.10352e-05C17.6801 -6.10352e-05 15.4534 1.07994 14.0001 2.78661C12.5467 1.07994 10.3201 -6.10352e-05 8.00008 -6.10352e-05C3.89341 -6.10352e-05 0.666748 3.22661 0.666748 7.33327C0.666748 12.3733 5.20008 16.4799 12.0667 22.7199L14.0001 24.4666L15.9334 22.7066C22.8001 16.4799 27.3334 12.3733 27.3334 7.33327C27.3334 3.22661 24.1067 -6.10352e-05 20.0001 -6.10352e-05ZM14.1334 20.7333L14.0001 20.8666L13.8667 20.7333C7.52008 14.9866 3.33341 11.1866 3.33341 7.33327C3.33341 4.66661 5.33342 2.66661 8.00008 2.66661C10.0534 2.66661 12.0534 3.98661 12.7601 5.81327H15.2534C15.9467 3.98661 17.9467 2.66661 20.0001 2.66661C22.6667 2.66661 24.6667 4.66661 24.6667 7.33327C24.6667 11.1866 20.4801 14.9866 14.1334 20.7333Z" fill="black"/>
</svg>
