<svg width="28" height="28" viewBox="0 0 28 28" fill="none" xmlns="http://www.w3.org/2000/svg">
<path d="M13.7332 0.400024C6.37324 0.400024 0.399902 6.37336 0.399902 13.7334C0.399902 21.0934 6.37324 27.0667 13.7332 27.0667C21.0932 27.0667 27.0666 21.0934 27.0666 13.7334C27.0666 6.37336 21.0932 0.400024 13.7332 0.400024ZM13.7332 4.40002C15.9466 4.40002 17.7332 6.18669 17.7332 8.40003C17.7332 10.6134 15.9466 12.4 13.7332 12.4C11.5199 12.4 9.73324 10.6134 9.73324 8.40003C9.73324 6.18669 11.5199 4.40002 13.7332 4.40002ZM13.7332 23.3334C10.3999 23.3334 7.45324 21.6267 5.73324 19.04C5.77324 16.3867 11.0666 14.9334 13.7332 14.9334C16.3866 14.9334 21.6932 16.3867 21.7332 19.04C20.0132 21.6267 17.0666 23.3334 13.7332 23.3334Z" fill="#1B749F"/>
</svg>
