<svg width="28" height="28" viewBox="0 0 28 28" fill="none" xmlns="http://www.w3.org/2000/svg">
<path d="M19.6534 8.33332C18.0934 6.77332 16.0534 5.98665 14.0001 5.98665V13.9867L8.34675 19.64C11.4667 22.76 16.5334 22.76 19.6667 19.64C22.7867 16.52 22.7867 11.4533 19.6534 8.33332ZM14.0001 0.65332C6.64008 0.65332 0.666748 6.62665 0.666748 13.9867C0.666748 21.3467 6.64008 27.32 14.0001 27.32C21.3601 27.32 27.3334 21.3467 27.3334 13.9867C27.3334 6.62665 21.3601 0.65332 14.0001 0.65332ZM14.0001 24.6533C8.10675 24.6533 3.33341 19.88 3.33341 13.9867C3.33341 8.09332 8.10675 3.31999 14.0001 3.31999C19.8934 3.31999 24.6667 8.09332 24.6667 13.9867C24.6667 19.88 19.8934 24.6533 14.0001 24.6533Z" fill="black"/>
</svg>
